<svg xmlns="http://www.w3.org/2000/svg" viewBox="0 0 1440 440" style="position:absolute; bottom: 0; min-width: 1400px;">
    <path class="s0 svgzinho" d="m-298,150.8l50.8,-13.6c50.8,-13.1 152.3,-41 253.9,-47.4c101.5,-6.3 203.1,6.4 304.6,-6.7c101.6,-13.6 203.1,-54.2 304.7,-67.8c101.5,-13.1 203.1,-0.4 304.6,20.3c101.6,20 203.1,47.9 304.7,47.5c101.5,0.4 203.1,-27.5 253.9,-40.6l50.7,-13.6v203.1h-50.7c-50.8,0 -152.4,0 -253.9,0q-152.3,0 -304.7,0q-152.3,0 -304.6,0q-152.4,0 -304.7,0q-152.3,0 -304.6,0c-101.6,0 -203.1,0 -253.9,0h-50.8z"/>
    <path class="s0 svgzinho" d="m0 428h40c40 0 120 0 200-21.3 80-21.7 160-63.7 240-64 80 0.3 160 42.3 240 37.3 80-5 160-59 240-64 80-5 160 37 240 42.7 80 5.3 160-26.7 200-42.7l40-16v-128h-40c-40 0-120 0-200 0q-120 0-240 0-120 0-240 0-120 0-240 0-120 0-240 0c-80 0-160 0-200 0h-40z"/>
</svg>