<svg width="1080" height="470.00000000000006" xmlns="http://www.w3.org/2000/svg" xmlns:svg="http://www.w3.org/2000/svg" clip-rule="evenodd" fill-rule="evenodd" version="1.1">
 <g class="layer">
  <title>Layer 1</title>
  <g id="svg_1">
   <path d="m805.5,122.5c36,-0.17 72,0 108,0.5c13.55,0.22 26.22,3.55 38,10c6.31,5.79 10.15,12.96 11.5,21.5c3.98,26.85 5.65,53.85 5,81c-1.51,1.04 -3.01,0.87 -4.5,-0.5c-14.45,-15.27 -31.45,-18.93 -51,-11c11.08,-1.09 22.08,-0.43 33,2c10.7,3.21 16.87,10.38 18.5,21.5c4.41,27.07 0.41,52.74 -12,77c-8.18,11.84 -19.01,20.34 -32.5,25.5c-10.06,3.01 -20.06,6.01 -30,9c3.65,7.09 6.15,14.59 7.5,22.5c3.29,15.06 5.46,30.23 6.5,45.5c-0.48,4.47 -1.48,8.8 -3,13c-2.4,0.63 -4.24,-0.2 -5.5,-2.5c-1.2,-2.59 -2.2,-5.26 -3,-8c-4.08,-20.4 -8.41,-40.73 -13,-61c-0.95,-1.96 -2.29,-3.62 -4,-5c-2.7,3.11 -4.03,6.78 -4,11c-0.22,28 0.12,56 1,84c68.43,0.17 136.93,0.51 205.5,1c-67.32,2.25 -134.65,3.08 -202,2.5c-2.26,-0.24 -4.43,-0.74 -6.5,-1.5c-0.75,-28.67 -1.08,-57.33 -1,-86c-0.22,-4.86 1.28,-9.03 4.5,-12.5c1.67,-0.67 3.33,-0.67 5,0c1.17,1.83 2.33,3.67 3.5,5.5c4.51,19.21 8.51,38.55 12,58c4.89,16.42 7.39,15.92 7.5,-1.5c-1.1,-21.48 -5.26,-42.31 -12.5,-62.5c-0.67,-1.67 -0.67,-3.33 0,-5c9.87,-2.59 19.7,-5.43 29.5,-8.5c26.21,-11.58 41.05,-31.75 44.5,-60.5c2.42,-15.16 1.76,-30.16 -2,-45c-4.6,-9.91 -12.43,-15.08 -23.5,-15.5c-7.33,-0.67 -14.67,-0.67 -22,0c-6.97,0.98 -11.47,4.81 -13.5,11.5c-2.16,21.13 -6.49,41.8 -13,62c-3.69,10.89 -9.52,20.39 -17.5,28.5c-11.74,7.91 -24.74,12.25 -39,13c-35.83,2.25 -71.5,0.58 -107,-5c-32.8,-2.81 -52.3,-20.31 -58.5,-52.5c-3.78,-15.95 -4.28,-31.95 -1.5,-48c1.19,-0.93 2.52,-1.26 4,-1c2.25,18.57 5.75,36.9 10.5,55c8.34,19.65 23.17,31.15 44.5,34.5c37.8,7.57 75.8,8.9 114,4c13.42,-2.1 23.58,-8.93 30.5,-20.5c6.09,-10.27 9.76,-21.27 11,-33c-4.61,11.73 -11.11,22.23 -19.5,31.5c-10.41,7.47 -22.08,10.8 -35,10c-25,0.67 -50,0.67 -75,0c-17.2,0.63 -33.53,-2.71 -49,-10c-8.41,-7.03 -10.24,-15.53 -5.5,-25.5c2.59,-3.26 5.76,-5.76 9.5,-7.5c6.76,-2.68 13.76,-4.35 21,-5c37.32,-1.54 74.65,-1.87 112,-1c12.38,0.15 24.72,0.99 37,2.5c1,-0.33 2,-0.67 3,-1c4.25,-12.5 10.09,-24.17 17.5,-35c15.2,-16.31 33.37,-20.81 54.5,-13.5c5.73,3.06 10.9,6.9 15.5,11.5c0.4,-22.73 -0.6,-45.39 -3,-68c-1.08,-21.07 -11.91,-33.24 -32.5,-36.5c-11.25,-1.86 -22.59,-2.86 -34,-3c-33.01,-0.72 -66.01,-0.39 -99,1c-16.3,0.38 -32.3,2.71 -48,7c-11.01,3.68 -18.85,10.85 -23.5,21.5c-5.1,16.95 -7.94,34.28 -8.5,52c0.1,10.54 4.6,18.54 13.5,24c9.41,10.16 13.75,22.16 13,36c-1.33,1.33 -2.67,1.33 -4,0c-3.87,-10.31 -8.87,-19.97 -15,-29c-9.64,-8.04 -20.8,-11.71 -33.5,-11c-11.75,-0.49 -22.75,2.01 -33,7.5c-6.04,7.9 -8.71,16.9 -8,27c0.12,26.68 7.29,51.18 21.5,73.5c5.59,7.21 12.76,12.04 21.5,14.5c6.88,1.98 13.88,3.31 21,4c46.97,2.32 93.97,3.66 141,4c1.75,0.47 3.41,1.14 5,2c1.1,9.77 1.1,19.6 0,29.5c1.93,22.35 3.93,44.68 6,67c-1.17,0.22 -2.17,-0.11 -3,-1c-1.37,-3.19 -2.2,-6.53 -2.5,-10c-3.21,-21.24 -5.55,-42.57 -7,-64c-1.77,-9.1 -7.27,-13.93 -16.5,-14.5c-22.98,-1.48 -45.98,-1.81 -69,-1c-2.39,1.95 -3.89,4.45 -4.5,7.5c-0.94,15.37 -2.28,30.71 -4,46c-0.88,4.64 -2.54,8.97 -5,13c-2,2.67 -4,2.67 -6,0c-1.61,-3.15 -2.61,-6.48 -3,-10c-0.28,-17.69 0.05,-35.36 1,-53c-3.28,-5.77 -8.28,-8.11 -15,-7c-8.62,-0.86 -14.28,2.81 -17,11c-4.76,18.56 -9.09,37.22 -13,56c-1.72,5.11 -3.72,10.11 -6,15c-3.13,2.96 -5.13,2.29 -6,-2c-0.67,-4.33 -0.67,-8.67 0,-13c3.21,-17.69 6.54,-35.36 10,-53c0.67,-3.67 0.67,-7.33 0,-11c-3.26,7.71 -5.6,15.71 -7,24c-1.41,11.66 -2.74,23.32 -4,35c-1.09,15.42 -9.25,23.92 -24.5,25.5c-11.64,1.07 -23.31,1.73 -35,2c-21,0.17 -42,0.33 -63,0.5c-187.33,-1.96 -374.66,-3.63 -562,-5c29.17,-0.33 58.33,-0.67 87.5,-1c158.5,1.33 317,2.66 475.5,4c21,-0.17 42,-0.33 63,-0.5c14.49,0.13 28.82,-1.2 43,-4c5.23,-2.23 8.73,-6.07 10.5,-11.5c2.66,-16.62 4.99,-33.28 7,-50c1.19,-6.91 3.19,-13.58 6,-20c1.24,-1.92 2.74,-2.25 4.5,-1c0.62,2.61 0.95,5.28 1,8c-2.79,20.11 -6.29,40.11 -10.5,60c-0.85,4.13 -0.52,8.13 1,12c2.38,-4.47 4.38,-9.13 6,-14c4.02,-18.74 8.35,-37.41 13,-56c3.34,-9.34 10.01,-14.01 20,-14c11.17,-0.98 17.34,4.02 18.5,15c-2.43,16.98 -2.93,33.98 -1.5,51c0.47,2.28 1.47,4.28 3,6c3.19,-5.57 5.19,-11.57 6,-18c1.14,-14.36 2.47,-28.69 4,-43c0.69,-2.7 2.19,-4.86 4.5,-6.5c4.1,-1.01 8.26,-1.51 12.5,-1.5c17.83,0.71 35.66,1.21 53.5,1.5c6.04,-0.16 11.71,1.17 17,4c2.61,1.94 4.44,4.44 5.5,7.5c1.91,6.86 2.91,13.86 3,21c0.62,-11.01 0.96,-22.01 1,-33c-0.5,-1.17 -1.33,-2 -2.5,-2.5c-43.31,-1.52 -86.64,-2.86 -130,-4c-12.94,-0.33 -25.61,-2.33 -38,-6c-9.33,-3.66 -16.5,-9.83 -21.5,-18.5c-15.13,-27.47 -20.8,-56.8 -17,-88c2.49,-9.16 8.33,-14.99 17.5,-17.5c13.61,-2.81 27.27,-3.14 41,-1c8.7,2.02 15.86,6.52 21.5,13.5c4.26,8.18 8.26,16.51 12,25c0.39,-7.45 -1.28,-14.45 -5,-21c-4.26,-6.26 -9.26,-11.93 -15,-17c-5.05,-6.75 -7.22,-14.42 -6.5,-23c0.56,-17.07 3.39,-33.74 8.5,-50c4.17,-9.5 11,-16.33 20.5,-20.5c7.76,-2.94 15.76,-4.94 24,-6c12.79,-1.5 25.46,-2.67 38,-3.5zm93,114c-2.3,27.55 -9.14,53.88 -20.5,79c-8.32,12.92 -20.15,20.42 -35.5,22.5c-45.35,5.08 -90.35,2.75 -135,-7c-18.07,-5.07 -29.9,-16.57 -35.5,-34.5c-5.8,-18.36 -7.63,-37.02 -5.5,-56c2.4,12.27 4.56,24.61 6.5,37c5.81,29.48 23.65,46.31 53.5,50.5c36.12,6.92 72.45,8.26 109,4c14.17,-1.5 25.34,-8 33.5,-19.5c6.08,-10.89 10.58,-22.39 13.5,-34.5c-0.2,-2.41 -1.2,-4.41 -3,-6c4.41,-12.99 10.74,-24.83 19,-35.5zm-158,34c35,-0.17 70,0 105,0.5c10.44,0.15 20.77,1.15 31,3c-4.39,12.12 -11.05,22.78 -20,32c-2.84,1.92 -5.84,3.59 -9,5c-8.82,2.52 -17.82,3.86 -27,4c-28.01,0.72 -56.01,0.38 -84,-1c-12.06,-0.34 -23.39,-3.34 -34,-9c-9.72,-7.61 -10.39,-15.95 -2,-25c4.3,-2.77 8.97,-4.77 14,-6c8.75,-1.67 17.41,-2.84 26,-3.5z" fill="#F2E6D8" id="svg_2" opacity="0.67"/>
  </g>
 </g>
</svg>