<svg width="1080" height="470.00000000000006" xmlns="http://www.w3.org/2000/svg" xmlns:svg="http://www.w3.org/2000/svg" clip-rule="evenodd" fill-rule="evenodd" version="1.1">
 <g class="layer">
  <title>Layer 1</title>
  <g id="svg_1">
   <path d="m1075.71,430.7c0,0.66 0,1.31 0,1.97c-24.15,-1.9 -48.32,-3.04 -72.52,-3.44c-13.98,1.57 -27.56,4.85 -40.73,9.83c-53.48,11.82 -107.46,14.45 -161.92,7.86c-7.73,-1.14 -15.35,-2.77 -22.85,-4.91c-15.17,-5.26 -21.63,-15.9 -19.37,-31.94c0.88,-0.57 1.88,-0.89 2.98,-0.98c7.31,4.2 14.76,8.28 22.35,12.28c18.64,6.74 37.84,11 57.62,12.78c36.9,4.62 73.66,3.64 110.27,-2.95c12.99,-2.97 24.91,-8.22 35.76,-15.72c1.86,-0.7 3.35,-0.21 4.47,1.47c0.99,-6.09 -0.83,-11.16 -5.46,-15.23c-7.22,-3.36 -14.67,-6.15 -22.35,-8.35c-1.49,0.17 -2.31,0.98 -2.48,2.46c0.82,3.44 2.31,6.56 4.47,9.34c1.17,3.71 0.35,6.82 -2.48,9.34c-8.18,3.82 -16.79,6.12 -25.83,6.88c-39.38,2.85 -78.79,3.17 -118.21,0.98c-8.06,-0.67 -16,-1.99 -23.84,-3.93c-4.5,-1.48 -8.64,-3.62 -12.42,-6.39c-1.35,-4.56 0.3,-6.85 4.97,-6.88c14.77,5.94 30.17,9.38 46.19,10.32c27.13,2.63 54.28,2.96 81.46,0.98c10.11,-0.63 20.05,-2.27 29.8,-4.91c9.56,-2.87 13.53,-9.09 11.92,-18.67c-1.16,-0.17 -2.31,-0.32 -3.48,-0.49c-47.14,11.01 -94.65,13.13 -142.55,6.39c-11.75,-1.63 -21.52,-6.71 -29.3,-15.23c-4.85,-14.51 -0.38,-25.48 13.41,-32.92c20.74,-8.62 40.61,-18.78 59.6,-30.47c8.28,-6.72 12.76,-15.4 13.41,-26.04c0.67,-13.76 0.67,-27.52 0,-41.28c-0.66,-18.82 -8.11,-34.38 -22.35,-46.68c-24.74,-16.28 -43.44,-37.74 -56.13,-64.37c-2.64,-4.13 -1.82,-7.24 2.48,-9.34c3.15,-0.17 6.29,-0.32 9.44,-0.49c35.19,3.46 70.45,5.76 105.8,6.88c15.39,-0.12 30.62,-1.59 45.7,-4.42c0.46,-0.4 0.78,-0.89 0.99,-1.47c-2.98,-2.13 -6.3,-3.61 -9.93,-4.42c-36.34,-8.86 -73.09,-11.15 -110.27,-6.88c-14.05,2.61 -27.95,5.73 -41.72,9.34c-0.18,-2.44 0.81,-4.24 2.98,-5.41c23.33,-11.74 48.17,-17.48 74.5,-17.2c27.02,0.23 53.51,4 79.47,11.3c4.55,1.84 8.69,4.29 12.42,7.37c2.38,4.65 3.05,9.56 1.99,14.74c-2.07,3.77 -4.39,7.37 -6.95,10.81c-16.37,15.63 -32.92,31.02 -49.67,46.19c-7,7.91 -13.62,16.1 -19.87,24.57c-7.65,13.93 -11.13,28.83 -10.43,44.72c0.15,8.7 0.65,17.39 1.49,26.04c-0.37,8.1 2.45,14.81 8.44,20.15c17.72,7.81 35.27,16 52.65,24.57c7.83,4.8 13.96,11.18 18.38,19.16c2.23,8.93 1.4,17.61 -2.48,26.04c0.33,0.49 0.67,0.98 0.99,1.47c5.6,-2.43 9.74,-6.36 12.42,-11.79c12.18,-27.17 10.19,-53.38 -5.96,-78.62c-8.4,-13.23 -19.16,-24.2 -32.29,-32.92c-9.11,-5.65 -18.05,-11.55 -26.82,-17.69c-10.58,-10.66 -11.08,-21.63 -1.49,-32.92c12.15,-10.35 24.57,-20.33 37.25,-29.97c22.8,-22.34 33.88,-49.36 33.28,-81.08c-1.92,-14.67 -10.36,-22.04 -25.33,-22.11c-46.33,-2.46 -92.69,-2.62 -139.07,-0.49c-6.66,-0.11 -13.27,-0.6 -19.87,-1.47c-1.55,-0.31 -2.71,-1.13 -3.48,-2.46c-11.72,37.54 -5.76,71.94 17.88,103.19c13.91,15.07 28.48,29.48 43.71,43.24c6.8,8.6 7.13,17.44 0.99,26.53c-3.48,3.44 -6.95,6.88 -10.43,10.32c-13.58,9.5 -27.15,19 -40.73,28.5c-13.91,11.29 -21.36,25.87 -22.35,43.73c-2.34,17.75 -0.69,35.1 4.97,52.09c1.9,3.84 4.54,7.12 7.95,9.83c3.92,10.35 1.44,12.15 -7.45,5.41c-8.22,-1.67 -14.5,0.95 -18.87,7.86c-1.26,0.3 -2.41,0.8 -3.48,1.47c-2.03,8.07 -1.87,16.09 0.5,24.08c-0.24,0.86 -0.57,1.68 -0.99,2.46c-5.26,1.14 -10.57,1.31 -15.89,0.49c-33.73,-3.22 -67.5,-5.85 -101.33,-7.86c-37.42,-0.66 -74.83,-0.66 -112.25,0c-56.63,3.4 -113.26,7.01 -169.87,10.81c-58.29,2.13 -116.57,1.8 -174.84,-0.98c-47.32,-3.49 -94.68,-6.6 -142.05,-9.34c-12.57,0.78 -25.15,1.11 -37.75,0.98c0,-0.66 0,-1.31 0,-1.97c19.86,-0.9 39.73,-1.07 59.6,-0.49c42.71,3.14 85.42,6.09 128.15,8.84c64.26,3.49 128.49,3.16 192.72,-0.98c43.36,-3.25 86.73,-6.2 130.13,-8.84c49.02,-2.1 98.03,-1.78 147.02,0.98c31.46,2.49 62.92,4.94 94.37,7.37c-0.43,-4.74 -0.75,-9.48 -0.99,-14.25c-0.25,-4.95 0.58,-9.71 2.48,-14.25c3.51,-1.15 6.32,-3.27 8.44,-6.39c7.83,-4.81 15.28,-4.31 22.35,1.47c0.17,-0.32 0.33,-0.66 0.5,-0.98c-4,-5.43 -7.81,-11.01 -11.42,-16.71c-7.17,-23.9 -7.17,-47.82 0,-71.74c4.39,-10.17 10.85,-18.85 19.37,-26.04c13.24,-9.17 26.49,-18.35 39.74,-27.52c3.8,-3.76 7.62,-7.54 11.42,-11.3c4.71,-7.94 4.04,-15.47 -1.99,-22.6c-13.21,-12.09 -26.13,-24.54 -38.74,-37.35c-26.72,-30.41 -34.67,-65.13 -23.84,-104.17c0.67,-2.62 0.67,-5.24 0,-7.86c-0.5,-1.15 -1.32,-1.97 -2.48,-2.46c-6.79,0.04 -13.08,-1.59 -18.87,-4.91c-5.39,-5.18 -6.88,-11.24 -4.47,-18.18c3.36,-2.39 7.17,-3.37 11.42,-2.95c18.86,0.61 37.74,0.93 56.62,0.98c54.3,-1.24 108.61,-1.73 162.92,-1.47c4.47,0.07 8.61,1.22 12.42,3.44c0.88,3.36 0.39,6.47 -1.49,9.34c-0.94,0.47 -1.94,0.64 -2.98,0.49c0.16,-2.32 0,-4.61 -0.5,-6.88c-1.56,-0.61 -3.22,-0.94 -4.97,-0.98c-28.88,3.29 -57.85,4.6 -86.92,3.93c-42.11,-0.07 -84.17,-1.71 -126.16,-4.91c-3.65,0.17 -7.28,0.32 -10.93,0.49c-4.37,0.68 -5.53,2.8 -3.48,6.39c1.31,1.96 3.13,3.1 5.46,3.44c9.24,1.04 18.51,1.7 27.81,1.97c53.99,-0.74 107.96,-2.21 161.92,-4.42c10.26,0.17 20.53,0.32 30.79,0.49c2.71,0.4 5.36,1.06 7.95,1.97c2.94,3.43 2.27,6.04 -1.99,7.86c-6.93,0.9 -13.89,1.56 -20.86,1.97c-4.71,1.95 -7.69,5.39 -8.94,10.32c-0.59,-0.21 -1.08,-0.53 -1.49,-0.98c0.44,-6.32 -2.54,-8.61 -8.94,-6.88c-46.18,2.24 -92.37,2.24 -138.58,0c-8.61,0.17 -17.22,0.32 -25.83,0.49c-3.97,1.31 -3.97,2.62 0,3.93c5.3,0.38 10.61,0.87 15.89,1.47c44.69,-2.24 89.39,-2.41 134.11,-0.49c7.07,0.18 14.03,1.16 20.86,2.95c8.6,4.38 13.4,11.43 14.4,21.13c0.99,28.17 -7.62,53.07 -25.83,74.69c-11.26,11.79 -23.67,22.11 -37.25,30.96c-7.43,5.54 -12.07,12.76 -13.91,21.62c0.02,3.32 0.84,6.44 2.48,9.34c2.81,2.78 5.63,5.57 8.44,8.35c15.74,8.85 30.14,19.5 43.21,31.94c22.74,23.6 31.02,51.45 24.83,83.54c-2.84,10.39 -8.3,19.07 -16.39,26.04c-2.24,1.13 -4.56,1.45 -6.95,0.98c-0.56,-0.72 -0.88,-1.53 -0.99,-2.46c2.06,-5.99 3.71,-12.05 4.97,-18.18c-0.98,-8.52 -4.96,-15.4 -11.92,-20.64c-4.64,-2.95 -9.27,-5.9 -13.91,-8.84c-15.69,-7.03 -31.24,-14.23 -46.69,-21.62c-5.45,-4.35 -8.26,-10.09 -8.44,-17.2c-2.71,-18.05 -2.71,-36.07 0,-54.05c1.19,-6.16 3.18,-12.06 5.96,-17.69c16.89,-24.58 37.25,-46.03 61.09,-64.37c5.17,-4.79 9.96,-9.86 14.4,-15.23c7.47,-10.95 4.99,-18.98 -7.45,-24.08c-39.44,-12.32 -79.5,-14.94 -120.2,-7.86c-11.23,2.39 -21.82,6.32 -31.79,11.79c45.02,-11.4 90.39,-12.38 136.09,-2.95c7.23,1.51 14.19,3.8 20.86,6.88c2.81,2.48 2.47,4.44 -0.99,5.9c-2.58,0.9 -5.24,1.56 -7.95,1.97c-27.11,2.91 -54.27,3.24 -81.46,0.98c-21.53,-1.71 -43.05,-3.52 -64.57,-5.41c-3.02,-0.08 -5.83,0.57 -8.44,1.97c-0.67,1.64 -0.67,3.27 0,4.91c8.63,18.7 20.72,34.92 36.26,48.65c7.8,5.66 15.41,11.56 22.85,17.69c14.42,15.26 21.21,33.44 20.36,54.54c1.22,15.23 0.23,30.3 -2.98,45.21c-4.8,9.99 -12.25,17.37 -22.35,22.11c-18.37,8.92 -36.58,18.09 -54.64,27.52c-12.38,9.92 -13.04,20.4 -1.99,31.45c9.9,5.4 20.5,8.68 31.79,9.83c45.44,4.91 90.31,1.81 134.6,-9.34c7.92,2.01 16.03,4.47 24.34,7.37c12.95,5.56 16.77,14.9 11.42,28.01c-0.99,1.31 -1.99,1.31 -2.98,0c-0.33,-2.29 -0.67,-4.59 -0.99,-6.88c-10.9,7.86 -22.98,13.27 -36.26,16.22c-20.81,4.23 -41.84,6.02 -63.08,5.41c-35.39,0.77 -69.99,-3.99 -103.81,-14.25c-8.43,-3.68 -16.38,-8.1 -23.84,-13.27c-2.64,12.3 1.66,21.31 12.91,27.03c18.45,5.51 37.32,8.46 56.62,8.84c39.71,2.38 79.11,0.09 118.21,-6.88c12.76,-3.01 25.34,-6.61 37.75,-10.81c4.59,-0.94 9.23,-1.59 13.91,-1.97c25.21,0.05 50.37,1.2 75.5,3.44zm-158.94,-386.23c24.85,-0.35 49.69,0.14 74.5,1.47c-14.5,1.97 -29.08,3.27 -43.71,3.93c-48.73,1.21 -97.4,0.23 -146.03,-2.95c38.58,-0.19 77,-1 115.23,-2.46zm-157.95,3.93c-0.7,4.23 0.63,7.67 3.97,10.32c6.82,1.79 13.78,2.77 20.86,2.95c19.54,0.66 39.07,0.66 58.61,0c47.64,-2.83 95.33,-4.14 143.05,-3.93c2.31,0.32 4.64,0.66 6.95,0.98c4.09,0.54 4.75,2.18 1.99,4.91c-6.96,0.6 -13.92,1.25 -20.86,1.97c-3.55,0.69 -6.36,2.49 -8.44,5.41c-0.5,-1.15 -1.32,-1.97 -2.48,-2.46c-53.32,2.21 -106.64,1.72 -159.94,-1.47c-4.64,0.45 -9.28,0.94 -13.91,1.47c-1.42,0.45 -2.58,1.28 -3.48,2.46c-0.82,-1.47 -1.99,-2.62 -3.48,-3.44c-7.14,0.2 -13.77,-1.43 -19.87,-4.91c-3.83,-4.28 -4.83,-9.04 -2.98,-14.25zm200.66,351.83c7.3,6.37 6.31,11.12 -2.98,14.25c-14.99,3.67 -30.22,5.63 -45.7,5.9c-30.81,0.87 -61.61,0.55 -92.38,-0.98c-10.84,-0.5 -21.11,-3.13 -30.79,-7.86c-3.29,-1.51 -3.62,-3.32 -0.99,-5.41c8.81,4.27 18.08,7.06 27.81,8.35c40.37,5.42 80.76,5.76 121.19,0.98c8.12,-1.03 15.24,-4.15 21.36,-9.34c1.11,-1.88 1.95,-3.84 2.48,-5.9z" fill="#402B1F" id="svg_2" opacity="1"/>
  </g>
 </g>
</svg>