<svg width="4000" height="440" xmlns="http://www.w3.org/2000/svg" xmlns:svg="http://www.w3.org/2000/svg">
 <g class="layer">
  <title>Layer 1</title>
  <path class="s0 svgzinho" d="m-0.5,393.3l55.75,-13.6c55.75,-13.1 167.13,-41 278.62,-47.4c111.38,-6.3 222.88,6.4 334.26,-6.7c111.49,-13.6 222.88,-54.2 334.37,-67.8c111.38,-13.1 222.88,-0.4 334.26,20.3c111.49,20 222.88,47.9 334.37,47.5c111.38,0.4 87.85,37.27 171.95,51.07c84.1,13.8 93.2,0.93 197.31,13.07l-35,84.77l-55.64,0c-55.75,0 -167.24,0 -278.62,0q-167.13,0 -334.37,0q-167.13,0 -334.26,0q-167.24,0 -334.37,0q-167.13,0 -334.26,0c-111.49,0 -222.88,0 -278.62,0l-55.75,0l0,-81.2z" fill="#402B1F" id="svg_1" transform="matrix(1 0 0 1 0 0)"/>
  <path class="s0 svgzinho" d="m2034.72,389.83l55.75,-13.6c55.75,-13.1 167.13,-41 278.62,-47.4c111.38,-6.3 222.88,6.4 334.26,-6.7c111.49,-13.6 222.88,-54.2 334.37,-67.8c111.38,-13.1 222.88,-0.4 334.26,20.3c111.49,20 222.88,47.9 334.37,47.5c111.38,0.4 87.85,37.27 171.95,51.07c84.1,13.8 103.2,2.93 207.31,15.07l-5,82.77l-95.64,0c-55.75,0 -167.24,0 -278.62,0q-167.13,0 -334.37,0q-167.13,0 -334.26,0q-167.24,0 -334.37,0q-167.13,0 -334.26,0c-111.49,0 -222.88,0 -278.62,0l-55.75,0l0,-81.2z" fill="#402B1F" id="svg_3"/>
 </g>
</svg>