<svg xmlns="http://www.w3.org/2000/svg" viewBox="0 0 1440 440">
  <path fill="#402B1F" class="s0 svgzinho" d="m-298,150.8l55.75,-13.6c55.75,-13.1 167.13,-41 278.62,-47.4c111.38,-6.3 222.88,6.4 334.26,-6.7c111.49,-13.6 222.88,-54.2 334.37,-67.8c111.38,-13.1 222.88,-0.4 334.26,20.3c111.49,20 222.88,47.9 334.37,47.5c111.38,0.4 222.88,-27.5 278.62,-40.6l55.64,-13.6l0,203.1l-55.64,0c-55.75,0 -167.24,0 -278.62,0q-167.13,0 -334.37,0q-167.13,0 -334.26,0q-167.24,0 -334.37,0q-167.13,0 -334.26,0c-111.49,0 -222.88,0 -278.62,0l-55.75,0l0,-81.2z" id="svg_1"/>
  <path fill="#402B1F" class="s0 svgzinho" d="m-296,428l55.67,0c55.67,0 167,0 278.33,-21.3c111.33,-21.7 222.67,-63.7 334,-64c111.33,0.3 222.67,42.3 334,37.3c111.33,-5 222.67,-59 334,-64c111.33,-5 222.67,37 334,42.7c111.33,5.3 222.67,-26.7 278.33,-42.7l55.67,-16l0,-128l-55.67,0c-55.67,0 -167,0 -278.33,0q-167,0 -334,0q-167,0 -334,0q-167,0 -334,0q-167,0 -334,0c-111.33,0 -222.67,0 -278.33,0l-55.67,0l0,256z" id="svg_2"/>
</svg>